<?xml version="1.0" encoding="utf-8"?>
<!-- Generator: Adobe Illustrator 25.2.1, SVG Export Plug-In . SVG Version: 6.00 Build 0)  -->
<svg version="1.1" id="Capa_1" xmlns="http://www.w3.org/2000/svg" xmlns:xlink="http://www.w3.org/1999/xlink" x="0px" y="0px"
	 viewBox="0 0 400 120.16" style="enable-background:new 0 0 400 120.16;" xml:space="preserve">
<style type="text/css">
	.st0{fill:white;}
</style>
<g>
	<g>
		<circle class="st0" cx="159.99" cy="20.16" r="20"/>
		<circle class="st0" cx="159.99" cy="60.16" r="20"/>
		<circle class="st0" cx="159.99" cy="100.16" r="20"/>
	</g>
	<path class="st0" d="M72.08,0.16H2.02C0.9,0.16,0,1.07,0,2.18v115.96c0,1.11,0.9,2.02,2.02,2.02h70.06
		c33.09,0,59.91-26.82,59.91-59.91v-0.16C131.99,26.99,105.17,0.16,72.08,0.16z M81.15,81.48c-20.64,20.64-46.84,27.9-58.53,16.22
		S18.2,59.81,38.84,39.17c20.64-20.64,46.84-27.9,58.53-16.22S101.79,60.84,81.15,81.48z"/>
	<path class="st0" d="M219.75,105.97C219.63,60.78,219.63,24,231.73,3.03C232.51,1.68,231.56,0,230,0h-33.97
		c-1.11,0-2.02,0.9-2.02,2.02v115.96c0,1.11,0.9,2.02,2.02,2.02h69.96c1.11,0,2.02-0.9,2.02-2.02V56.01c0-2-2.59-2.77-3.7-1.11
		c-16.34,24.7-33.29,47.09-41.38,52.72C221.58,108.56,219.75,107.61,219.75,105.97z"/>
	<path class="st0" d="M340.17,0.33c-33.04,0-59.83,26.79-59.83,59.83c0,16.19,6.44,30.86,16.88,41.63l-16.62,14.77
		c-1.26,1.27-0.36,3.43,1.43,3.43h58.14c33.04,0,59.83-26.79,59.83-59.83S373.21,0.33,340.17,0.33z M377.54,97.53
		c-11.68,11.68-37.89,4.42-58.53-16.22c-20.64-20.64-27.9-46.84-16.22-58.53s37.89-4.42,58.53,16.22
		C381.96,59.65,389.22,85.85,377.54,97.53z"/>
</g>
</svg>
