<?xml version="1.0" encoding="utf-8"?>
<!-- Generator: Adobe Illustrator 25.2.1, SVG Export Plug-In . SVG Version: 6.00 Build 0)  -->
<svg version="1.1" id="Capa_1" xmlns="http://www.w3.org/2000/svg" xmlns:xlink="http://www.w3.org/1999/xlink" x="0px" y="0px"
	 viewBox="0 0 500 150.2" style="enable-background:new 0 0 500 150.2;" xml:space="preserve">
<style type="text/css">
	.st0{fill:#EBB724;}
</style>
<g>
	<g>
		<circle class="st0" cx="200.27" cy="25.59" r="25"/>
		<circle class="st0" cx="200.27" cy="75.59" r="25"/>
		<circle class="st0" cx="200.27" cy="125.58" r="25"/>
	</g>
	<path class="st0" d="M90.38,0.59H2.81c-1.39,0-2.52,1.13-2.52,2.52v144.94c0,1.39,1.13,2.52,2.52,2.52h87.57
		c41.36,0,74.89-33.53,74.89-74.89v-0.2C165.28,34.12,131.75,0.59,90.38,0.59z M101.72,102.23c-25.8,25.8-58.56,34.88-73.16,20.27
		s-5.53-47.36,20.27-73.16c25.8-25.8,58.56-34.88,73.16-20.27S127.52,76.43,101.72,102.23z"/>
	<path class="st0" d="M274.97,132.85c-0.14-56.49-0.14-102.47,14.99-128.67c0.97-1.69-0.22-3.79-2.17-3.79h-42.46
		c-1.39,0-2.52,1.13-2.52,2.52v144.95c0,1.39,1.13,2.52,2.52,2.52h87.45c1.39,0,2.52-1.13,2.52-2.52V70.4c0-2.5-3.24-3.47-4.62-1.38
		c-20.42,30.88-41.62,58.86-51.73,65.9C277.26,136.09,274.97,134.9,274.97,132.85z"/>
	<path class="st0" d="M425.49,0.8c-41.31,0-74.79,33.48-74.79,74.79c0,20.23,8.05,38.57,21.1,52.04l-20.77,18.46
		c-1.58,1.59-0.45,4.29,1.79,4.29h72.67c41.31,0,74.79-33.49,74.79-74.79S466.8,0.8,425.49,0.8z M472.21,122.3
		c-14.6,14.6-47.36,5.53-73.16-20.27c-25.8-25.8-34.88-58.56-20.27-73.16c14.6-14.6,47.36-5.53,73.16,20.27
		C477.74,74.95,486.82,107.7,472.21,122.3z"/>
</g>
</svg>
